<?xml version="1.0" encoding="utf-8"?>
<!-- Generator: Adobe Illustrator 24.1.1, SVG Export Plug-In . SVG Version: 6.00 Build 0)  -->
<svg version="1.1" id="Layer_1" xmlns="http://www.w3.org/2000/svg" xmlns:xlink="http://www.w3.org/1999/xlink" x="0px" y="0px"
	 viewBox="0 0 512 512" style="enable-background:new 0 0 512 512;" xml:space="preserve">
<style type="text/css">
	.st0{fill:#57BA63;}
	.st1{fill:#FFFFFF;}
</style>
<g id="XMLID_1_">
	<path id="XMLID_3_" class="st0" d="M25.2,0h461.6c14,0,25.2,11.2,25.2,25.2v461.6c0,14-11.2,25.2-25.2,25.2H25.2
		C11.2,512,0,500.8,0,486.8V25.2C0,11.2,11.2,0,25.2,0z"/>
	<path id="XMLID_7_" class="st1" d="M257.4,395.4c-24.2,0-47.6-6.5-67.1-16.8l-77.4,24.2l25.2-74.6c-13.1-20.5-19.6-45.7-19.6-71.8
		c0-76.5,62.5-138,139.9-138s139.9,61.6,139.9,138S333.9,395.4,257.4,395.4z M257.4,140.8c-64.3,0-117.5,52.2-117.5,116.6
		c0,25.2,8.4,49.4,22.4,68.1l-14.9,42.9l44.8-14c18.7,12.1,41,19.6,64.3,19.6c64.3,0,117.5-52.2,117.5-116.6
		S321.7,140.8,257.4,140.8z M327.3,288.2c-0.9-1.9-2.8-1.9-6.5-3.7c-3.7-1.9-20.5-10.3-23.3-11.2c-2.8-0.9-5.6-1.9-7.5,1.9
		c-1.9,3.7-8.4,11.2-11.2,13.1c-1.9,1.9-3.7,2.8-7.5,0.9c-3.7-1.9-14-5.6-27-16.8c-10.3-9.3-16.8-20.5-18.7-23.3
		c-1.9-3.7,0-5.6,1.9-6.5c1.9-1.9,3.7-3.7,4.7-5.6c1.9-1.9,1.9-3.7,3.7-5.6c0.9-1.9,0.9-4.7,0-5.6c-0.9-1.9-7.5-18.7-10.3-25.2
		c-2.8-6.5-5.6-5.6-7.5-5.6c-1.9,0-4.7,0-6.5,0s-5.6,0.9-9.3,4.7c-2.8,3.7-12.1,11.2-12.1,28s12.1,32.6,14,35.4
		c1.9,1.9,23.3,37.3,58.8,51.3c34.5,14,34.5,9.3,41,8.4c6.5-0.9,20.5-8.4,23.3-15.9C328.3,296.6,328.3,290,327.3,288.2z"/>
</g>
</svg>
